# xmcd
#
# Track frame offsets: 
#        150
#        12034
#        26087
#        39264
#        52157
#        66430
#        79414
#        93398
#        106101
#        117158
#        131208
#        143881
#        155998
#        167663
#        180446
#        192862
#        206051
#        216706
#        227719
#        240811
#        251406
#        264824
#        279074
#        293086
#        304526
#        315752
#
# Disc length: 4389 seconds
#
# Revision: 2
# Processed by: cddbd v1.5.2PL0 Copyright (c) Steve Scherf et al.
# Submitted via: ExactAudioCopy v1.0b4
#
DISCID=6611231a
DTITLE=Sleepy John Estes - Jailhouse Blues
DYEAR=1900
DGENRE=Blues
TTITLE0=Jack And Jill Blues
TTITLE1=Poor Man's Friend
TTITLE2=Hobo Jungle Blues
TTITLE3=Airplane Blues
TTITLE4=Floating Bridge
TTITLE5=Need More Blues
TTITLE6=Fire Departement Blues
TTITLE7=New Someday Baby
TTITLE8=Liquor Store Blues
TTITLE9=Brownsville Blues
TTITLE10=Everybody Oughta Make A Change
TTITLE11=Easin' Back To Tennessee
TTITLE12=Clean Up At Home
TTITLE13=Special Agent
TTITLE14=Drop Down
TTITLE15=Jailhouse Blues
TTITLE16=Time Is Drawing Near
TTITLE17=Tell Me How About It
TTITLE18=Mailman Blues
TTITLE19=Mary Come On Home
TTITLE20=Working Man Blues
TTITLE21=Don't You Want To Know
TTITLE22=Lawyer Clark Blues
TTITLE23=You Shouldn't Do That
TTITLE24=Little Laura Blues
TTITLE25=When The Saints Go Marching In
EXTD=
EXTT0=
EXTT1=
EXTT2=
EXTT3=
EXTT4=
EXTT5=
EXTT6=
EXTT7=
EXTT8=
EXTT9=
EXTT10=
EXTT11=
EXTT12=
EXTT13=
EXTT14=
EXTT15=
EXTT16=
EXTT17=
EXTT18=
EXTT19=
EXTT20=
EXTT21=
EXTT22=
EXTT23=
EXTT24=
EXTT25=
PLAYORDER=
